<?xml version="1.0" encoding="iso-8859-1"?>
<!-- Generator: Adobe Illustrator 19.0.0, SVG Export Plug-In . SVG Version: 6.00 Build 0)  -->
<svg version="1.1" id="Layer_1" xmlns="http://www.w3.org/2000/svg" xmlns:xlink="http://www.w3.org/1999/xlink" x="0px" y="0px"
	 viewBox="0 0 512 512" style="enable-background:new 0 0 512 512;" xml:space="preserve">
<g>
	<g>
		<path d="M464.424,0H47.576C21.336,0,0,21.336,0,47.576v416.848C0,490.656,21.336,512,47.576,512h416.848
			C490.656,512,512,490.656,512,464.424V47.576C512,21.336,490.656,0,464.424,0z M496,464.424C496,481.832,481.832,496,464.424,496
			H47.576C30.168,496,16,481.832,16,464.424V47.576C16,30.168,30.168,16,47.576,16h416.848C481.832,16,496,30.168,496,47.576
			V464.424z"/>
	</g>
</g>
<g>
	<g>
		<path d="M256,203.696c-28.84,0-52.304,23.464-52.304,52.304c0,28.84,23.464,52.304,52.304,52.304
			c28.84,0,52.304-23.464,52.304-52.304C308.304,227.16,284.84,203.696,256,203.696z M256,292.304
			c-20.016,0-36.304-16.288-36.304-36.304s16.288-36.304,36.304-36.304s36.304,16.288,36.304,36.304S276.016,292.304,256,292.304z"
			/>
	</g>
</g>
<g>
	<g>
		<path d="M115.4,73.144c-28.84,0-52.304,23.464-52.304,52.304c0,28.84,23.464,52.304,52.304,52.304
			c28.84,0,52.304-23.464,52.304-52.304C167.704,96.608,144.24,73.144,115.4,73.144z M115.4,161.752
			c-20.016,0-36.304-16.288-36.304-36.304S95.384,89.144,115.4,89.144s36.304,16.288,36.304,36.304S135.416,161.752,115.4,161.752z"
			/>
	</g>
</g>
<g>
	<g>
		<path d="M396.6,334.248c-28.84,0-52.304,23.464-52.304,52.304c0,28.84,23.464,52.304,52.304,52.304
			c28.848,0,52.304-23.464,52.304-52.304S425.44,334.248,396.6,334.248z M396.6,422.856c-20.016,0-36.304-16.288-36.304-36.304
			c0-20.016,16.288-36.304,36.304-36.304s36.304,16.288,36.304,36.304C432.904,406.568,416.616,422.856,396.6,422.856z"/>
	</g>
</g>
<g>
</g>
<g>
</g>
<g>
</g>
<g>
</g>
<g>
</g>
<g>
</g>
<g>
</g>
<g>
</g>
<g>
</g>
<g>
</g>
<g>
</g>
<g>
</g>
<g>
</g>
<g>
</g>
<g>
</g>
</svg>
